<?xml version="1.0" encoding="UTF-8" standalone="no"?>
<!-- Created with Inkscape (http://www.inkscape.org/) -->

<svg
   width="1000"
   height="600"
   viewBox="0 0 264.58332 158.75"
   version="1.1"
   id="svg1"
   inkscape:export-filename="bitmap.png"
   inkscape:export-xdpi="96"
   inkscape:export-ydpi="96"
   inkscape:version="1.4 (e7c3feb100, 2024-10-09)"
   sodipodi:docname="drawing.svg"
   xmlns:inkscape="http://www.inkscape.org/namespaces/inkscape"
   xmlns:sodipodi="http://sodipodi.sourceforge.net/DTD/sodipodi-0.dtd"
   xmlns="http://www.w3.org/2000/svg"
   xmlns:svg="http://www.w3.org/2000/svg">
  <sodipodi:namedview
     id="namedview1"
     pagecolor="#ffffff"
     bordercolor="#000000"
     borderopacity="0.25"
     inkscape:showpageshadow="2"
     inkscape:pageopacity="0.0"
     inkscape:pagecheckerboard="0"
     inkscape:deskcolor="#d1d1d1"
     inkscape:document-units="mm"
     inkscape:zoom="0.70710678"
     inkscape:cx="488.61079"
     inkscape:cy="552.2504"
     inkscape:window-width="1906"
     inkscape:window-height="1156"
     inkscape:window-x="0"
     inkscape:window-y="0"
     inkscape:window-maximized="1"
     inkscape:current-layer="layer1" />
  <defs
     id="defs1" />
  <g
     inkscape:label="Layer 1"
     inkscape:groupmode="layer"
     id="layer1">
    <path
       style="fill:#ffffff;stroke-width:0.264583;fill-opacity:1"
       d="m 65.898496,19.093734 c 0,0 15.30173,58.102222 -5.32234,52.779882 -20.62407,-5.32234 -16.85408,-15.30173 -16.85408,-15.30173 0,0 -0.88706,-6.652927 8.42704,-4.657048 9.3141,1.995879 10.86645,-18.628193 6.2094,-29.716404 -4.65705,-11.08821 -0.66529,-17.0758445 -0.66529,-17.0758445 0,0 7.31822,-2.439405 8.20527,13.9711445 z"
       id="path2" />
    <path
       style="fill:#ffffff;stroke-width:0.242048;fill-opacity:1"
       d="m 110.06198,72.49373 c 28.80837,-3.651765 19.4398,-66.2943475 12.37543,-66.7461635 -4.89691,-0.313191 -5.27478,10.1437935 -5.27478,10.1437935 0,0 4.86902,56.196617 -7.10065,47.472958 C 98.092296,54.640655 98.700926,16.905739 98.700926,16.905739 c 0,0 1.511284,-16.04337847 -5.64425,-9.6086795 C 86.791036,12.931519 81.253596,76.1455 110.06198,72.49373 Z"
       id="path3"
       sodipodi:nodetypes="sscscss" />
    <path
       style="fill:#ffffff;stroke-width:0.240797;fill-opacity:1"
       d="m 160.75691,15.774684 c -51.98731,13.158208 63.19697,24.203607 -0.372,50.414495 -42.58575,17.559054 19.92676,-16.419157 1.96405,-20.657551 -17.96271,-4.23839 -31.74669,-27.223969 -17.80058,-32.198862 20.51798,-7.3192255 29.4244,-13.83936747 30.38529,4.781358 0.6786,13.150592 -6.57223,-4.264182 -14.17676,-2.33944 z"
       id="path4"
       sodipodi:nodetypes="ssssss" />
    <path
       style="fill:#ffffff;stroke-width:0.240797;fill-opacity:1"
       d="m 191.30433,90.89428 c -51.98731,13.15821 63.19697,24.20361 -0.372,50.4145 -42.58575,17.55906 19.92676,-16.41916 1.96405,-20.65755 -17.96271,-4.23839 -31.74669,-27.22397 -17.80058,-32.19887 20.51798,-7.31922 29.4244,-13.83936 30.38529,4.78136 0.6786,13.15059 -6.57223,-4.26418 -14.17676,-2.33944 z"
       id="path4-5"
       sodipodi:nodetypes="ssssss" />
    <path
       style="fill:#ffffff;stroke-width:0.241959;fill-opacity:1"
       d="m 199.49799,15.673697 c 0.60841,43.80521 -0.40559,51.917285 5.88126,51.308882 6.28686,-0.608412 3.85324,-52.12009 3.85324,-52.12009 0,0 24.26701,-0.782708 13.4611,-5.7250525 -7.44606,-3.405635 -44.21386,-3.202087 -35.36371,4.3346885 2.41048,2.052764 12.16811,2.201572 12.16811,2.201572 z"
       id="path5"
       sodipodi:nodetypes="cscssc" />
    <path
       style="fill:#ffffff;stroke-width:0.323541;fill-opacity:1"
       d="m 11.037647,88.37428 c 12.108951,-11.45442 21.152095,-8.94897 33.626407,-0.81354 15.620165,10.18706 8.948963,59.65975 8.948963,59.65975 0,0 -15.350759,13.64999 -12.745494,-3.25417 C 44.58628,119.83732 20.32845,60.4948 18.630706,138.54271 17.792246,177.08802 -8.304913,106.6713 11.037647,88.37428 Z"
       id="path6"
       sodipodi:nodetypes="sscsss" />
    <path
       style="fill:#ffffff;stroke-width:0.057535;fill-opacity:1"
       d="m 151.56562,82.28777 c 0,0 10.46456,-3.56856 7.76403,2.8452 -2.70053,6.41377 -2.0254,9.3072 -5.97975,7.18535 -3.95436,-2.12185 -5.20817,-4.96705 -3.90613,-6.79956 1.30204,-1.8325 0.91625,-2.55586 2.12185,-3.23099 z"
       id="path7" />
    <path
       style="fill:#ffffff;stroke-width:0.264583;fill-opacity:1"
       d="m 144.57259,109.13542 c 0,0 -9.09234,45.68343 -1.77412,39.25226 7.31822,-6.43116 16.63232,-41.46991 14.8582,-44.57461 -1.77411,-3.10469 -5.32234,-18.84995 -13.08408,5.32235 z"
       id="path8" />
    <path
       style="fill:#ffffff;stroke-width:0.29707;fill-opacity:1"
       d="m 225.90339,82.32174 c -17.0473,4.40223 -4.4819,60.25654 -4.4819,60.25654 0,0 2.23966,5.71232 21.91147,3.98391 15.71166,-1.38046 20.41751,-11.20473 0.99598,-9.95976 -19.42153,1.24497 -11.70272,-15.93563 -11.70272,-15.93563 0,0 1.49397,-4.48188 11.70272,-3.73491 10.20875,0.74698 22.16046,-11.9517 1.49396,-10.45775 -20.6665,1.49397 -10.45774,-13.19667 -10.45774,-13.19667 0,0 25.92774,-0.17607 23.1888,-6.15192 -2.73893,-5.97586 -21.25727,-7.74598 -32.65057,-4.80381 z"
       id="path10"
       sodipodi:nodetypes="scsscsscss" />
    <path
       id="path11"
       style="fill:#ffffff;fill-opacity:1;stroke-width:0.159799"
       d="m 99.264448,91.394112 c 0,0 -35.09183,6.161264 -29.198572,25.448298 5.893258,19.28702 28.394945,23.57288 29.198572,24.37651 0,0 31.341312,-0.26773 28.126802,-24.37651 C 124.17675,92.733624 99.264448,91.394112 99.264448,91.394112 Z M 94.307873,105.2111 c 5.980917,0.0108 15.671527,5.20221 15.671527,5.20221 5.35751,6.16113 -1.87524,10.44719 -10.179376,14.19744 -8.304136,3.75026 -7.500404,-1.07141 -9.911279,-13.66156 -0.82874,-4.32785 1.286266,-5.74375 4.419128,-5.73809 z" />
  </g>
</svg>
